<svg width="392" height="81" viewBox="0 0 392 81" fill="none" xmlns="http://www.w3.org/2000/svg">
<g clip-path="url(#clip0_1_955)">
<path d="M89.9708 0.246094H30.4019C25.0327 0.246094 20.6802 4.59864 20.6802 9.96778V69.5368C20.6802 74.9059 25.0327 79.2584 30.4019 79.2584H89.9708C95.34 79.2584 99.6925 74.9059 99.6925 69.5368V9.96778C99.6925 4.59864 95.34 0.246094 89.9708 0.246094Z" fill="white"/>
<path d="M60.4683 68.4945V54.2805L42.885 43.998L60.4683 68.4945Z" fill="#F0CDC2" stroke="#1616B4" stroke-width="0.314747" stroke-linejoin="round"/>
<path d="M60.5259 68.4945V54.2805L78.109 43.998L60.5259 68.4945Z" fill="#C9B3F5" stroke="#1616B4" stroke-width="0.314747" stroke-linejoin="round"/>
<path d="M60.4674 50.7473V32.6064L42.6825 40.5703L60.4674 50.7473Z" fill="#88AAF1" stroke="#1616B4" stroke-width="0.314747" stroke-linejoin="round"/>
<path d="M60.5259 50.7473V32.6064L78.3109 40.5703L60.5259 50.7473Z" fill="#C9B3F5" stroke="#1616B4" stroke-width="0.314747" stroke-linejoin="round"/>
<path d="M42.6825 40.5702L60.4674 11.8398V32.6064L42.6825 40.5702Z" fill="#F0CDC2" stroke="#1616B4" stroke-width="0.314747" stroke-linejoin="round"/>
<path d="M78.3108 40.5702L60.5259 11.8398V32.6064L78.3108 40.5702Z" fill="#B8FAF6" stroke="#1616B4" stroke-width="0.314747" stroke-linejoin="round"/>
</g>
<g clip-path="url(#clip1_1_955)">
<path d="M186.957 0.246094H127.388C122.019 0.246094 117.667 4.59864 117.667 9.96778V69.5368C117.667 74.9059 122.019 79.2584 127.388 79.2584H186.957C192.326 79.2584 196.679 74.9059 196.679 69.5368V9.96778C196.679 4.59864 192.326 0.246094 186.957 0.246094Z" fill="white"/>
<path d="M169.97 31.6845C169.077 31.1347 167.916 31.1347 166.934 31.6845L159.967 35.9014L155.234 38.6513L148.268 42.8681C147.375 43.418 146.213 43.418 145.231 42.8681L139.694 39.5679C138.801 39.018 138.176 38.0096 138.176 36.9097V30.4012C138.176 29.3012 138.711 28.2929 139.694 27.7427L145.142 24.5345C146.035 23.9843 147.196 23.9843 148.178 24.5345L153.626 27.7427C154.519 28.2929 155.145 29.3012 155.145 30.4012V34.6179L159.878 31.7761V27.5594C159.878 26.4595 159.342 25.4511 158.36 24.9012L148.268 18.851C147.375 18.301 146.213 18.301 145.231 18.851L134.96 24.9012C133.978 25.4511 133.442 26.4595 133.442 27.5594V39.7514C133.442 40.8514 133.978 41.8597 134.96 42.4097L145.231 48.4599C146.124 49.0097 147.285 49.0097 148.268 48.4599L155.234 44.3347L159.967 41.4931L166.934 37.3679C167.827 36.818 168.988 36.818 169.97 37.3679L175.418 40.5764C176.311 41.1264 176.936 42.1347 176.936 43.2347V49.7431C176.936 50.8432 176.4 51.8515 175.418 52.4016L169.97 55.7016C169.077 56.2517 167.916 56.2517 166.934 55.7016L161.486 52.4933C160.593 51.9431 159.967 50.9348 159.967 49.8348V45.6181L155.234 48.4599V52.6765C155.234 53.7764 155.77 54.7849 156.752 55.3348L167.023 61.385C167.916 61.935 169.077 61.935 170.059 61.385L180.33 55.3348C181.223 54.7849 181.848 53.7764 181.848 52.6765V40.4846C181.848 39.3846 181.313 38.3763 180.33 37.8263L169.97 31.6845Z" fill="#7950DD"/>
</g>
<g clip-path="url(#clip2_1_955)">
<path d="M283.944 0.246094H224.375C219.006 0.246094 214.653 4.59864 214.653 9.96778V69.5368C214.653 74.9059 219.006 79.2584 224.375 79.2584H283.944C289.313 79.2584 293.666 74.9059 293.666 69.5368V9.96778C293.666 4.59864 289.313 0.246094 283.944 0.246094Z" fill="white"/>
<path d="M241.669 40.1667L236.574 45.2685L231.43 40.1667L236.572 35.0197L241.669 40.1667ZM254.124 27.6995L262.899 36.483L268.043 31.3378L254.124 17.4507L240.205 31.3832L245.349 36.5284L254.124 27.6995ZM271.676 35.0197L266.58 40.1667L271.722 45.3139L276.862 40.1667L271.676 35.0197ZM254.124 52.6341L245.349 43.8052L240.205 48.9522L254.124 62.8828L268.043 48.9503L262.899 43.8052L254.124 52.6341ZM254.124 45.2703L259.266 40.1213L254.124 35.0215L248.982 40.1667L254.124 45.2685V45.2703Z" fill="#F0B90B"/>
</g>
<g clip-path="url(#clip3_1_955)">
<path d="M381.424 0.246094H321.855C316.486 0.246094 312.133 4.59864 312.133 9.96778V69.5368C312.133 74.9059 316.486 79.2584 321.855 79.2584H381.424C386.793 79.2584 391.146 74.9059 391.146 69.5368V9.96778C391.146 4.59864 386.793 0.246094 381.424 0.246094Z" fill="white"/>
<path d="M374.357 51.3443L366.654 59.6045C366.487 59.7838 366.285 59.9271 366.061 60.025C365.836 60.123 365.594 60.1738 365.349 60.174H328.831C328.657 60.1739 328.486 60.123 328.341 60.0276C328.195 59.9321 328.08 59.7963 328.011 59.6367C327.941 59.477 327.919 59.3006 327.948 59.1288C327.978 58.9571 328.056 58.7976 328.175 58.6698L335.869 50.4096C336.036 50.2303 336.238 50.0871 336.462 49.9891C336.687 49.8911 336.929 49.8404 337.174 49.8401H373.692C373.868 49.8365 374.041 49.885 374.189 49.9794C374.337 50.0738 374.455 50.21 374.525 50.3707C374.597 50.5316 374.618 50.7098 374.589 50.883C374.559 51.0563 374.478 51.2168 374.357 51.3443ZM366.654 34.7067C366.486 34.5281 366.284 34.3855 366.06 34.2876C365.836 34.1897 365.594 34.1385 365.349 34.1373H328.831C328.657 34.1373 328.486 34.1882 328.341 34.2837C328.195 34.3791 328.08 34.515 328.011 34.6746C327.941 34.8342 327.919 35.0107 327.948 35.1825C327.978 35.3542 328.056 35.5137 328.175 35.6415L335.869 43.9059C336.037 44.0846 336.239 44.2271 336.463 44.3251C336.687 44.423 336.929 44.4741 337.174 44.4754H373.692C373.866 44.4745 374.036 44.423 374.181 44.3273C374.326 44.2315 374.44 44.0956 374.509 43.9361C374.578 43.7766 374.599 43.6005 374.57 43.4292C374.541 43.2578 374.462 43.0987 374.344 42.9713L366.654 34.7067ZM328.831 28.7725H365.349C365.594 28.7723 365.836 28.7215 366.061 28.6235C366.285 28.5256 366.487 28.3825 366.654 28.203L374.357 19.943C374.478 19.8154 374.559 19.6549 374.589 19.4815C374.618 19.3083 374.597 19.1301 374.525 18.9693C374.455 18.8085 374.337 18.6723 374.189 18.5779C374.041 18.4835 373.868 18.4351 373.692 18.4387H337.174C336.929 18.439 336.687 18.4896 336.462 18.5876C336.238 18.6857 336.036 18.8288 335.869 19.0082L328.175 27.2683C328.056 27.3961 327.978 27.5556 327.948 27.7274C327.919 27.8991 327.941 28.0755 328.011 28.2352C328.08 28.3948 328.195 28.5307 328.341 28.6261C328.486 28.7215 328.657 28.7724 328.831 28.7725Z" fill="url(#paint0_linear_1_955)"/>
</g>
<defs>
<linearGradient id="paint0_linear_1_955" x1="331.874" y1="61.1696" x2="370.166" y2="17.9996" gradientUnits="userSpaceOnUse">
<stop offset="0.08" stop-color="#9945FF"/>
<stop offset="0.3" stop-color="#8752F3"/>
<stop offset="0.5" stop-color="#5497D5"/>
<stop offset="0.6" stop-color="#43B4CA"/>
<stop offset="0.72" stop-color="#28E0B9"/>
<stop offset="0.97" stop-color="#19FB9B"/>
</linearGradient>
<clipPath id="clip0_1_955">
<rect width="80" height="80" fill="white" transform="translate(20.6396 0.0908203)"/>
</clipPath>
<clipPath id="clip1_1_955">
<rect width="80" height="80" fill="white" transform="translate(117.64 0.0908203)"/>
</clipPath>
<clipPath id="clip2_1_955">
<rect width="80" height="80" fill="white" transform="translate(214.64 0.0908203)"/>
</clipPath>
<clipPath id="clip3_1_955">
<rect width="79.0123" height="80" fill="white" transform="translate(312.133 0.0908203)"/>
</clipPath>
</defs>
</svg>
