<svg width="392" height="81" viewBox="0 0 392 81" fill="none" xmlns="http://www.w3.org/2000/svg">
<g clip-path="url(#clip0_1_1016)">
<path d="M90.6396 0.0908203H30.6396C25.1168 0.0908203 20.6396 4.56797 20.6396 10.0908V70.0908C20.6396 75.6137 25.1168 80.0908 30.6396 80.0908H90.6396C96.1625 80.0908 100.64 75.6137 100.64 70.0908V10.0908C100.64 4.56797 96.1625 0.0908203 90.6396 0.0908203Z" fill="white"/>
<path d="M74.3201 20.5107H60.5996L64.8364 33.6549H78.5571L67.4599 41.4828L71.6968 54.6968C78.8377 49.5201 81.1805 41.6781 78.5571 33.6409L74.3201 20.5107ZM42.6421 33.6549H56.3627L60.5996 20.5107H46.8789L42.6421 33.6549C40.0186 41.6921 42.3615 49.5339 49.5024 54.7108L53.7392 41.4968L42.6421 33.6549ZM49.5024 54.6968L60.5996 62.5107L71.6968 54.6968L60.5996 46.7433L49.5024 54.6968Z" fill="black"/>
</g>
<g clip-path="url(#clip1_1_1016)">
<path d="M187.75 0.584473H128.49C123.036 0.584473 118.614 5.00635 118.614 10.461V69.7203C118.614 75.1749 123.036 79.5968 128.49 79.5968H187.75C193.204 79.5968 197.626 75.1749 197.626 69.7203V10.461C197.626 5.00635 193.204 0.584473 187.75 0.584473Z" fill="white"/>
<path d="M139.011 55.9423L145.431 14.9349C145.48 14.6317 145.646 14.36 145.894 14.1788C146.142 13.9976 146.451 13.9215 146.755 13.967C146.934 13.9998 147.104 14.0717 147.252 14.1776C147.401 14.2834 147.524 14.4206 147.614 14.5793L154.241 26.9546L156.868 21.9176C156.94 21.7794 157.039 21.6567 157.158 21.5566C157.277 21.4564 157.415 21.3808 157.564 21.334C157.712 21.2873 157.869 21.2702 158.024 21.2839C158.179 21.2976 158.33 21.3418 158.468 21.4139C158.677 21.5346 158.851 21.7083 158.972 21.9176L176.848 55.9423H139.011Z" fill="#FFA000"/>
<path d="M161.174 39.9722L154.261 26.9253L139.011 55.9426L161.174 39.9722Z" fill="#F57C00"/>
<path d="M176.888 55.9426L171.95 25.5624C171.899 25.2513 171.727 24.9729 171.471 24.788C171.216 24.603 170.898 24.5263 170.587 24.5747C170.342 24.6095 170.117 24.7241 169.945 24.9006L139.011 55.9426L156.147 65.6019C156.675 65.8916 157.268 66.0434 157.87 66.0434C158.473 66.0434 159.066 65.8916 159.594 65.6019L176.888 55.9426Z" fill="#FFCA28"/>
<path d="M171.999 25.5915C171.948 25.2804 171.776 25.0021 171.521 24.8171C171.266 24.6321 170.948 24.5555 170.636 24.6039C170.391 24.6364 170.165 24.7513 169.994 24.9298L163.831 31.0829L159.011 21.878C158.939 21.7398 158.841 21.6171 158.722 21.517C158.602 21.4168 158.464 21.3412 158.316 21.2944C158.167 21.2476 158.011 21.2306 157.856 21.2443C157.7 21.258 157.55 21.3022 157.411 21.3743C157.202 21.4949 157.028 21.6687 156.908 21.878L154.28 26.915L147.653 14.5496C147.579 14.4138 147.479 14.2941 147.358 14.1972C147.237 14.1003 147.098 14.0282 146.95 13.985C146.801 13.9419 146.645 13.9285 146.492 13.9458C146.338 13.963 146.189 14.0104 146.053 14.0854C145.893 14.1712 145.753 14.2922 145.645 14.4391C145.538 14.5862 145.464 14.7556 145.431 14.9348L139.011 55.9422L139.189 56.031L163.88 31.3397L170.043 25.1866C170.152 25.0737 170.283 24.9839 170.427 24.9225C170.571 24.8612 170.726 24.8296 170.883 24.8296C171.04 24.8296 171.195 24.8612 171.339 24.9225C171.483 24.9839 171.614 25.0737 171.722 25.1866C171.905 25.3584 172.021 25.5895 172.048 25.8385L176.908 55.9224H176.967L171.999 25.5915ZM139.071 55.8829L145.431 15.231C145.452 15.0787 145.502 14.9319 145.58 14.7992C145.658 14.6667 145.762 14.551 145.885 14.459C146.008 14.367 146.149 14.3006 146.298 14.2635C146.448 14.2265 146.603 14.2197 146.755 14.2434C146.935 14.2743 147.105 14.3454 147.254 14.4514C147.403 14.5575 147.526 14.6956 147.614 14.8557L154.241 27.231L156.868 22.194C156.939 22.0548 157.037 21.9313 157.156 21.8304C157.275 21.7295 157.414 21.6534 157.562 21.6065C157.711 21.5595 157.868 21.5429 158.024 21.5573C158.179 21.5716 158.33 21.6169 158.468 21.6903C158.677 21.811 158.851 21.9847 158.972 22.194L163.703 31.1915L139.071 55.8829Z" fill="white" fill-opacity="0.2"/>
<path opacity="0.2" d="M159.594 65.2659C159.065 65.5573 158.47 65.7101 157.866 65.7101C157.261 65.7101 156.667 65.5573 156.137 65.2659L139.041 55.7252V55.9919L156.147 65.6018C156.675 65.8914 157.268 66.0432 157.871 66.0432C158.473 66.0432 159.066 65.8914 159.594 65.6018L176.878 55.982V55.7153L159.594 65.2659Z" fill="#A52714"/>
<path d="M171.999 25.5915C171.948 25.2804 171.776 25.0021 171.521 24.8171C171.266 24.6321 170.948 24.5555 170.636 24.6039C170.391 24.6364 170.165 24.7513 169.994 24.9298L163.831 31.0829L159.011 21.878C158.939 21.7398 158.841 21.6171 158.722 21.517C158.602 21.4168 158.464 21.3412 158.316 21.2944C158.167 21.2476 158.011 21.2306 157.856 21.2443C157.7 21.258 157.55 21.3022 157.411 21.3743C157.202 21.4949 157.028 21.6687 156.908 21.878L154.28 26.915L147.653 14.5496C147.579 14.4138 147.479 14.2941 147.358 14.1972C147.237 14.1003 147.098 14.0282 146.95 13.985C146.801 13.9419 146.645 13.9285 146.492 13.9458C146.338 13.963 146.189 14.0104 146.053 14.0854C145.893 14.1712 145.753 14.2922 145.645 14.4391C145.538 14.5862 145.464 14.7556 145.431 14.9348L139.011 55.9422L156.147 65.6014C156.675 65.8911 157.268 66.0429 157.871 66.0429C158.473 66.0429 159.066 65.8911 159.594 65.6014L176.878 55.9817L171.999 25.5915Z" fill="url(#paint0_linear_1_1016)"/>
</g>
<g clip-path="url(#clip2_1_1016)">
<path d="M284.737 0.584473H225.478C220.023 0.584473 215.601 5.00635 215.601 10.461V69.7203C215.601 75.1749 220.023 79.5968 225.478 79.5968H284.737C290.192 79.5968 294.614 75.1749 294.614 69.7203V10.461C294.614 5.00635 290.192 0.584473 284.737 0.584473Z" fill="white"/>
<path d="M277.338 40.5119C277.338 39.0488 277.208 37.66 276.986 36.3081H256.06V44.66H268.041C267.504 47.4008 265.93 49.7155 263.597 51.2896V56.8452H270.745C274.93 52.9748 277.338 47.2711 277.338 40.5119Z" fill="#4285F4"/>
<path d="M256.06 62.2339C262.06 62.2339 267.078 60.2339 270.745 56.845L263.597 51.2895C261.597 52.6228 259.06 53.4376 256.06 53.4376C250.264 53.4376 245.356 49.5302 243.597 44.2524H236.227V49.9746C239.875 57.2339 247.375 62.2339 256.06 62.2339Z" fill="#34A853"/>
<path d="M243.597 44.2526C243.134 42.9192 242.893 41.4933 242.893 40.0118C242.893 38.5303 243.153 37.1044 243.597 35.7711V30.0488H236.227C234.708 33.0488 233.838 36.4192 233.838 40.0118C233.838 43.6044 234.708 46.9748 236.227 49.9748L243.597 44.2526Z" fill="#FBBC05"/>
<path d="M256.06 26.5859C259.338 26.5859 262.264 27.7155 264.578 29.9192L270.912 23.5859C267.078 19.9933 262.06 17.7896 256.06 17.7896C247.375 17.7896 239.875 22.7895 236.227 30.0488L243.597 35.7711C245.356 30.4933 250.264 26.5859 256.06 26.5859Z" fill="#EA4335"/>
</g>
<g clip-path="url(#clip3_1_1016)">
<path d="M381.724 0.584473H322.464C317.01 0.584473 312.588 5.00635 312.588 10.461V69.7203C312.588 75.1749 317.01 79.5968 322.464 79.5968H381.724C387.178 79.5968 391.6 75.1749 391.6 69.7203V10.461C391.6 5.00635 387.178 0.584473 381.724 0.584473Z" fill="white"/>
<path d="M375.185 25.2556C373.464 26.0181 371.616 26.5333 369.672 26.7662C371.655 25.5791 373.176 23.6955 373.893 21.4532C372.038 22.5537 369.984 23.3533 367.797 23.782C366.045 21.919 363.551 20.7524 360.79 20.7524C355.489 20.7524 351.19 25.0515 351.19 30.3563C351.19 31.1065 351.277 31.8361 351.437 32.5409C343.456 32.139 336.385 28.316 331.649 22.5084C330.824 23.9304 330.35 25.5791 330.35 27.3351C330.35 30.6654 332.046 33.6064 334.62 35.3273C333.046 35.2757 331.566 34.845 330.272 34.1258V34.2494C330.272 38.9009 333.58 42.7816 337.973 43.6636C337.166 43.8821 336.319 43.9975 335.445 43.9975C334.826 43.9975 334.223 43.9398 333.637 43.8285C334.859 47.6412 338.404 50.4193 342.606 50.4935C339.319 53.0697 335.179 54.605 330.682 54.605C329.907 54.605 329.142 54.5596 328.39 54.4711C332.64 57.1977 337.685 58.7845 343.105 58.7845C360.767 58.7845 370.423 44.1562 370.423 31.4692C370.423 31.057 370.412 30.6407 370.394 30.2286C372.269 28.8724 373.897 27.1845 375.181 25.2618L375.185 25.2556Z" fill="#1DA1F2"/>
</g>
<defs>
<linearGradient id="paint0_linear_1_1016" x1="138.002" y1="23.0986" x2="177.531" y2="62.6542" gradientUnits="userSpaceOnUse">
<stop stop-color="white" stop-opacity="0.1"/>
<stop offset="1" stop-color="white" stop-opacity="0"/>
</linearGradient>
<clipPath id="clip0_1_1016">
<rect width="80" height="80" fill="white" transform="translate(20.6396 0.0908203)"/>
</clipPath>
<clipPath id="clip1_1_1016">
<rect width="80" height="79.0123" fill="white" transform="translate(117.64 0.584473)"/>
</clipPath>
<clipPath id="clip2_1_1016">
<rect width="80" height="79.0123" fill="white" transform="translate(214.64 0.584473)"/>
</clipPath>
<clipPath id="clip3_1_1016">
<rect width="80" height="79.0123" fill="white" transform="translate(311.64 0.584473)"/>
</clipPath>
</defs>
</svg>
