<svg width="392" height="81" viewBox="0 0 392 81" fill="none" xmlns="http://www.w3.org/2000/svg">
<g clip-path="url(#clip0_1_985)">
<path d="M89.815 0.584473H30.5557C25.1011 0.584473 20.6792 5.00635 20.6792 10.461V69.7203C20.6792 75.1749 25.1011 79.5968 30.5557 79.5968H89.815C95.2697 79.5968 99.6915 75.1749 99.6915 69.7203V10.461C99.6915 5.00635 95.2697 0.584473 89.815 0.584473Z" fill="white"/>
<path d="M59.6914 45.3469C62.3654 45.3469 64.5331 43.1792 64.5331 40.5053C64.5331 37.8313 62.3654 35.6636 59.6914 35.6636C57.0175 35.6636 54.8499 37.8313 54.8499 40.5053C54.8499 43.1792 57.0175 45.3469 59.6914 45.3469Z" fill="#61DAFB"/>
<path d="M59.6915 50.425C74.0396 50.425 85.6711 45.9839 85.6711 40.5054C85.6711 35.0271 74.0396 30.5859 59.6915 30.5859C45.3434 30.5859 33.7119 35.0271 33.7119 40.5054C33.7119 45.9839 45.3434 50.425 59.6915 50.425Z" stroke="#61DAFB" stroke-width="0.944713"/>
<path d="M51.1009 45.4653C58.2751 57.891 67.9369 65.7437 72.6813 63.0045C77.4257 60.2653 75.4561 47.9716 68.282 35.5458C61.1079 23.1199 51.4461 15.2673 46.7017 18.0065C41.9572 20.7457 43.9269 33.0394 51.1009 45.4653Z" stroke="#61DAFB" stroke-width="0.944713"/>
<path d="M51.1009 35.5458C43.9269 47.9716 41.9572 60.2653 46.7017 63.0045C51.4461 65.7437 61.1079 57.891 68.282 45.4653C75.4561 33.0394 77.4257 20.7457 72.6813 18.0065C67.9369 15.2673 58.2751 23.1199 51.1009 35.5458Z" stroke="#61DAFB" stroke-width="0.944713"/>
</g>
<g clip-path="url(#clip1_1_985)">
<path d="M186.801 0.584473H127.542C122.088 0.584473 117.666 5.00635 117.666 10.461V69.7203C117.666 75.1749 122.088 79.5968 127.542 79.5968H186.801C192.256 79.5968 196.678 75.1749 196.678 69.7203V10.461C196.678 5.00635 192.256 0.584473 186.801 0.584473Z" fill="white"/>
<path d="M157.37 17.8682L135.669 25.6066L138.979 54.2996L157.37 64.4854L175.76 54.2996L179.07 25.6066L157.37 17.8682Z" fill="#DD0031"/>
<path d="M157.37 17.8682V23.0427V23.0194V46.631V64.4854L175.761 54.2996L179.071 25.6066L157.37 17.8682Z" fill="#C3002F"/>
<path d="M157.37 23.0195L143.804 53.4373H148.862L151.589 46.6312H163.104L165.831 53.4373H170.889L157.37 23.0195ZM161.332 42.4356H153.407L157.37 32.9024L161.332 42.4356Z" fill="white"/>
</g>
<g clip-path="url(#clip2_1_985)">
<path d="M283.789 0.584473H224.53C219.075 0.584473 214.653 5.00635 214.653 10.461V69.7203C214.653 75.1749 219.075 79.5968 224.53 79.5968H283.789C289.244 79.5968 293.666 75.1749 293.666 69.7203V10.461C293.666 5.00635 289.244 0.584473 283.789 0.584473Z" fill="white"/>
<path d="M263.966 46.3975C262.939 46.3975 262.106 45.5648 262.106 44.5383C262.106 43.5119 262.939 42.6792 263.966 42.6792C264.992 42.6792 265.825 43.5119 265.825 44.5383C265.825 45.5648 264.992 46.3975 263.966 46.3975ZM243.496 46.3975C242.469 46.3975 241.636 45.5648 241.636 44.5383C241.636 43.5119 242.469 42.6792 243.496 42.6792C244.522 42.6792 245.355 43.5119 245.355 44.5383C245.355 45.5648 244.522 46.3975 243.496 46.3975ZM264.624 35.2426L268.342 28.8324C268.555 28.4644 268.42 27.9996 268.052 27.7866C267.684 27.5736 267.219 27.7092 267.006 28.0772L263.249 34.5648C260.383 33.2478 257.168 32.5119 253.74 32.5119C250.312 32.5119 247.078 33.2478 244.212 34.5454L240.455 28.0577C240.242 27.6898 239.777 27.5542 239.409 27.7672C239.041 27.9803 238.906 28.4451 239.119 28.8131L242.818 35.2233C236.466 38.6897 232.108 45.1193 231.469 52.7302H275.953C275.334 45.1387 270.996 38.7092 264.624 35.2426Z" fill="#3DDA84"/>
</g>
<g clip-path="url(#clip3_1_985)">
<path d="M381.64 0.0908203H321.64C316.117 0.0908203 311.64 4.56797 311.64 10.0908V70.0908C311.64 75.6137 316.117 80.0908 321.64 80.0908H381.64C387.162 80.0908 391.64 75.6137 391.64 70.0908V10.0908C391.64 4.56797 387.162 0.0908203 381.64 0.0908203Z" fill="white"/>
<path d="M329.161 51.4185H333.003V35.0649H329.161V51.4185ZM331.074 32.9202C332.277 32.9202 333.219 31.9945 333.219 30.8375C333.219 29.6649 332.277 28.7393 331.074 28.7393C329.886 28.7393 328.945 29.665 328.945 30.8375C328.945 31.9946 329.886 32.9202 331.074 32.9202ZM345.793 28.7854C339.298 28.7854 335.225 33.2133 335.225 40.2949C335.225 47.3765 339.298 51.789 345.793 51.789C352.273 51.789 356.346 47.3765 356.346 40.2949C356.346 33.2133 352.273 28.7854 345.793 28.7854ZM345.793 32.1796C349.758 32.1796 352.288 35.327 352.288 40.2948C352.288 45.2472 349.758 48.3946 345.793 48.3946C341.813 48.3946 339.298 45.2473 339.298 40.2948C339.298 35.327 341.813 32.1796 345.793 32.1796ZM357.966 45.1548C358.136 49.2588 361.499 51.7889 366.622 51.7889C372.006 51.7889 375.4 49.1352 375.4 44.9079C375.4 41.5909 373.487 39.7241 368.967 38.6905L366.406 38.1042C363.675 37.4563 362.549 36.5923 362.549 35.1112C362.549 33.2598 364.246 32.0256 366.761 32.0256C369.306 32.0256 371.049 33.2753 371.235 35.358H375.03C374.937 31.4393 371.697 28.7855 366.791 28.7855C361.947 28.7855 358.506 31.4546 358.506 35.4042C358.506 38.5824 360.45 40.5573 364.554 41.4985L367.439 42.1773C370.247 42.8407 371.389 43.7664 371.389 45.3709C371.389 47.2223 369.522 48.5491 366.838 48.5491C364.122 48.5491 362.07 47.2069 361.824 45.1549H357.967L357.966 45.1548Z" fill="black"/>
</g>
<defs>
<clipPath id="clip0_1_985">
<rect width="80" height="79.0123" fill="white" transform="translate(20.6396 0.584473)"/>
</clipPath>
<clipPath id="clip1_1_985">
<rect width="80" height="79.0123" fill="white" transform="translate(117.64 0.584473)"/>
</clipPath>
<clipPath id="clip2_1_985">
<rect width="80" height="79.0123" fill="white" transform="translate(214.64 0.584473)"/>
</clipPath>
<clipPath id="clip3_1_985">
<rect width="80" height="80" fill="white" transform="translate(311.64 0.0908203)"/>
</clipPath>
</defs>
</svg>
