<svg width="191" height="28" viewBox="0 0 191 28" fill="none" xmlns="http://www.w3.org/2000/svg">
<path fill-rule="evenodd" clip-rule="evenodd" d="M96.3057 25.4673C95.0467 25.4673 93.8926 25.2033 92.8435 24.6754C92.2514 24.3708 91.7371 24.0088 91.3004 23.5895C91.0245 23.3246 90.4654 23.5043 90.4654 23.8839V24.4504C90.4654 24.7077 90.2534 24.9164 89.9919 24.9164H87.7212C87.4598 24.9164 87.2479 24.7077 87.2479 24.4504V0.729773C87.2479 0.472373 87.4598 0.263672 87.7212 0.263672H89.9813C90.2426 0.263672 90.4546 0.472373 90.4546 0.729773V9.07847C90.4546 9.45797 91.0152 9.63887 91.2919 9.37467C91.7321 8.95467 92.2507 8.59207 92.8435 8.28697C93.8926 7.75907 95.0467 7.49507 96.3057 7.49507C98.5677 7.49507 100.479 8.36727 102.042 10.1118C103.65 11.8791 104.455 14.0024 104.455 16.4812C104.455 18.9831 103.65 21.1062 102.042 22.8506C100.479 24.5951 98.5677 25.4673 96.3057 25.4673ZM95.7807 22.5753C97.3197 22.5753 98.6137 22.0015 99.6627 20.8538C100.713 19.7291 101.237 18.2716 101.237 16.4812C101.237 14.7139 100.713 13.2563 99.6627 12.1087C98.6137 10.961 97.3197 10.3872 95.7807 10.3872C94.219 10.3872 92.9134 10.961 91.8641 12.1087C90.8383 13.2563 90.3254 14.7139 90.3254 16.4812C90.3254 18.2716 90.8383 19.7405 91.8641 20.8882C92.9134 22.0129 94.219 22.5753 95.7807 22.5753ZM76.1918 25.4673C73.6737 25.4673 71.5987 24.6181 69.9666 22.9196C68.3347 21.221 67.5186 19.075 67.5186 16.4812C67.5186 13.9105 68.3113 11.7758 69.8967 10.0773C71.4822 8.35587 73.5105 7.49507 75.982 7.49507C78.5233 7.49507 80.5402 8.30997 82.0323 9.93957C83.6403 11.6444 84.4091 14.2087 84.3084 16.5408C84.2954 16.8398 84.039 17.0666 83.735 17.0666H71.3841C71.0674 17.0666 70.8108 17.3243 70.8436 17.6344C70.9909 19.0268 71.5379 20.1687 72.4847 21.0604C73.5572 22.0702 74.8395 22.5753 76.3317 22.5753C78.2354 22.5753 79.7577 21.7058 80.8988 19.9668C81.0512 19.7344 81.3548 19.6399 81.6075 19.7612L83.5299 20.6844C83.8008 20.8146 83.9095 21.141 83.7524 21.3944C83.0094 22.5941 82.0279 23.55 80.8082 24.2622C79.456 25.0656 77.9171 25.4673 76.1918 25.4673ZM71.237 13.785C71.1232 14.1208 71.392 14.4499 71.7516 14.4499H80.2701C80.598 14.4499 80.86 14.1735 80.7934 13.8575C80.6025 12.9501 80.1411 12.1834 79.4093 11.5578C78.5466 10.7774 77.3808 10.3872 75.9121 10.3872C74.6996 10.3872 73.6505 10.7544 72.7645 11.4889C72.0622 12.0869 71.5529 12.8523 71.237 13.785ZM66.5322 8.69307C66.637 8.37337 66.3947 8.04597 66.0535 8.04597H63.833C63.6099 8.04597 63.4135 8.19057 63.3504 8.40117L60.0753 19.3463C59.9439 19.7851 59.3157 19.7943 59.1712 19.3593L55.5264 8.38727C55.4589 8.18367 55.2658 8.04597 55.0483 8.04597H52.4544C52.2373 8.04597 52.0447 8.18307 51.9767 8.38607L48.299 19.3667C48.1536 19.8007 47.5264 19.7908 47.3953 19.3524L44.1183 8.40117C44.0552 8.19057 43.8587 8.04597 43.6357 8.04597H41.3452C41.004 8.04597 40.7618 8.37337 40.8665 8.69307L46.0678 24.5732C46.1348 24.7778 46.3283 24.9164 46.5465 24.9164H49.0662C49.2846 24.9164 49.4781 24.7777 49.545 24.5729L53.2156 13.3439C53.3563 12.9134 53.9747 12.9127 54.1166 13.3428L57.8182 24.5741C57.8854 24.7783 58.0786 24.9164 58.2967 24.9164H60.8522C61.0706 24.9164 61.2639 24.7778 61.3309 24.5732L66.5322 8.69307ZM166.219 23.918C167.152 24.7673 168.317 25.1919 169.716 25.1919C170.642 25.1919 171.472 25.0898 172.206 24.8856C172.456 24.816 172.583 24.5493 172.497 24.3077L171.81 22.3963C171.718 22.14 171.424 22.0163 171.16 22.0983C171.088 22.1205 171.015 22.1418 170.941 22.1621C170.707 22.2081 170.462 22.2309 170.205 22.2309C169.646 22.2309 169.145 22.0358 168.702 21.6456C168.259 21.2324 168.038 20.4636 168.038 19.3389V11.4041C168.038 11.1467 168.25 10.938 168.511 10.938H171.761C172.022 10.938 172.234 10.7294 172.234 10.472V8.51207C172.234 8.25467 172.022 8.04597 171.761 8.04597H168.511C168.25 8.04597 168.038 7.83737 168.038 7.57997V0.729773C168.038 0.472373 167.826 0.263672 167.563 0.263672H165.293C165.032 0.263672 164.82 0.472373 164.82 0.729773V7.57997C164.82 7.83737 164.608 8.04597 164.346 8.04597H162.286C162.025 8.04597 161.813 8.25467 161.813 8.51207V10.472C161.813 10.7294 162.025 10.938 162.286 10.938H164.346C164.608 10.938 164.82 11.1467 164.82 11.4041V20.3717C164.843 21.8866 165.309 23.0688 166.219 23.918ZM120.268 23.4015C121.831 22.0244 122.612 20.3029 122.612 18.2372C122.612 16.9747 122.25 15.8386 121.527 14.8286C121.195 14.3484 120.717 13.738 119.316 12.9645C119.019 12.8011 119.012 12.3657 119.292 12.1767C120.969 11.0452 121.807 9.33217 121.807 7.32297C121.807 5.41787 121.096 3.86857 119.674 2.67497C118.228 1.43547 116.445 0.815771 114.323 0.815771C112.621 0.815771 111.141 1.26337 109.882 2.15857C108.76 2.95617 107.925 3.97257 107.377 5.20757C107.263 5.46347 107.394 5.75577 107.655 5.86477L109.643 6.69367C109.924 6.81107 110.246 6.66997 110.372 6.39587C111.156 4.69567 112.473 3.84557 114.323 3.84557C115.582 3.84557 116.596 4.16697 117.366 4.80957C118.135 5.45227 118.52 6.29007 118.52 7.32297C118.52 8.44767 118.112 9.36577 117.296 10.0773C116.48 10.7659 115.431 11.1103 114.148 11.1103H112.862C112.568 11.1103 112.33 11.3449 112.33 11.6345V13.5469C112.33 13.8365 112.568 14.0711 112.862 14.0711H114.393C115.745 14.0711 116.899 14.4729 117.855 15.2762C118.835 16.0795 119.324 17.0666 119.324 18.2372C119.324 19.4077 118.858 20.4062 117.925 21.2325C116.969 22.0358 115.839 22.4375 114.533 22.4375C113.344 22.4375 112.318 22.0932 111.455 21.4047C110.741 20.799 110.195 19.9771 109.819 18.9391C109.711 18.6427 109.377 18.4815 109.082 18.6025L107.136 19.4005C106.887 19.5027 106.753 19.7734 106.841 20.025C107.385 21.5896 108.328 22.8759 109.672 23.8836C111.117 24.9394 112.738 25.4673 114.533 25.4673C116.818 25.4673 118.73 24.7787 120.268 23.4015ZM128.321 19.7521C128.321 18.8338 128.752 18.065 129.615 17.4452C130.501 16.8256 131.597 16.5157 132.902 16.5157C134.577 16.5157 135.907 16.8553 136.892 17.5347C137.026 17.6267 137.101 17.7799 137.092 17.9401C137.028 19.1653 136.494 20.2399 135.49 21.1637C134.441 22.1505 133.24 22.6441 131.888 22.6441C130.932 22.6441 130.093 22.3687 129.37 21.8178C128.671 21.267 128.321 20.5783 128.321 19.7521ZM138.113 9.38867C136.738 8.12627 134.861 7.49507 132.483 7.49507C129.616 7.49507 127.406 8.46597 125.854 10.4077C125.687 10.6168 125.749 10.919 125.978 11.0607L128.007 12.3186C128.222 12.4514 128.503 12.393 128.661 12.1982C129.68 10.945 131.012 10.3183 132.658 10.3183C133.847 10.3183 134.884 10.7085 135.77 11.4889C136.662 12.2512 136.977 13.1675 137.068 14.2022C137.099 14.5579 136.704 14.7879 136.37 14.6504C135.263 14.1953 133.932 13.9678 132.378 13.9678C130.139 13.9678 128.344 14.4843 126.992 15.5173C125.663 16.5501 124.999 17.9387 124.999 19.6832C124.999 21.3357 125.628 22.713 126.887 23.8147C128.169 24.9164 129.755 25.4673 131.643 25.4673C133.858 25.4673 135.63 24.5032 136.959 22.5753V24.4504C136.959 24.7077 137.171 24.9164 137.433 24.9164H139.703C139.965 24.9164 140.177 24.7077 140.177 24.4504V14.5187C140.177 12.3382 139.489 10.6282 138.113 9.38867ZM158.844 24.4212C158.844 24.6948 158.619 24.9164 158.342 24.9164H156.129C155.852 24.9164 155.627 24.6948 155.627 24.4212V23.8681C155.627 23.5114 155.078 23.3402 154.82 23.5905C154.414 23.9836 153.926 24.3337 153.353 24.641C152.351 25.1919 151.302 25.4673 150.206 25.4673C148.107 25.4673 146.487 24.882 145.344 23.7114C144.225 22.5178 143.666 20.8308 143.666 18.6502V8.54117C143.666 8.26767 143.891 8.04597 144.169 8.04597H146.38C146.658 8.04597 146.883 8.26767 146.883 8.54117V18.4438C146.953 21.1981 148.364 22.5753 151.114 22.5753C152.397 22.5753 153.47 22.0702 154.332 21.0604C155.196 20.0274 155.627 18.7995 155.627 17.3764V8.54117C155.627 8.26767 155.852 8.04597 156.129 8.04597H158.342C158.619 8.04597 158.844 8.26767 158.844 8.54117V24.4212ZM175.465 0.729773C175.465 0.472373 175.677 0.263672 175.94 0.263672H178.21C178.471 0.263672 178.683 0.472373 178.683 0.729773V9.09427C178.683 9.45107 179.229 9.62067 179.485 9.36877C179.885 8.97697 180.364 8.62787 180.922 8.32137C181.947 7.77057 183.007 7.49507 184.104 7.49507C186.203 7.49507 187.811 8.09187 188.929 9.28547C190.072 10.4561 190.643 12.1316 190.643 14.3121V24.4504C190.643 24.7077 190.432 24.9164 190.171 24.9164H187.9C187.638 24.9164 187.426 24.7077 187.426 24.4504V14.9319C187.426 11.9021 186.062 10.3872 183.334 10.3872C182.029 10.3872 180.922 10.9266 180.012 12.0054C179.126 13.0612 178.683 14.3007 178.683 15.7237V24.4504C178.683 24.7077 178.471 24.9164 178.21 24.9164H175.94C175.677 24.9164 175.465 24.7077 175.465 24.4504V0.729773Z" fill="white"/>
<path d="M28.2199 22.2423C28.4073 22.9418 29.399 22.9418 29.5863 22.2423L34.9777 2.10167C35.226 1.17437 34.5278 0.263672 33.5687 0.263672H30.2446C29.5844 0.263672 29.0065 0.707573 28.8356 1.34587L25.7953 12.7035C25.7532 12.861 25.7532 13.0269 25.7953 13.1844L28.2199 22.2423Z" fill="white"/>
<path d="M9.37841 12.6888C9.42061 12.8463 9.42061 13.0122 9.37841 13.1697L6.95371 22.2274C6.76651 22.9271 5.77471 22.9271 5.58745 22.2274L0.199981 2.10167C-0.0482588 1.17437 0.649842 0.263672 1.60897 0.263672H4.93308C5.59329 0.263672 6.17121 0.707573 6.34201 1.34587L9.37841 12.6888Z" fill="white"/>
<path d="M13.9229 26.6694C13.7579 27.2877 13.1998 27.7177 12.5622 27.7177H9.1605C8.2343 27.7177 7.5601 26.8355 7.7998 25.9372L14.3458 1.41027C14.5263 0.733973 15.1367 0.263672 15.8341 0.263672H19.7906C20.4878 0.263672 21.0984 0.733973 21.2789 1.41027L27.8249 25.9372C28.0646 26.8355 27.3904 27.7177 26.4641 27.7177H23.0624C22.4248 27.7177 21.8666 27.2877 21.7017 26.6694L18.4715 14.566C18.2907 13.889 17.3339 13.889 17.1532 14.566L13.9229 26.6694Z" fill="white"/>
<path d="M16.6175 24.1168C16.3741 24.1168 16.1969 23.8968 16.26 23.6729L17.4545 19.4273C17.5526 19.0789 18.0717 19.0789 18.1698 19.4273L19.3644 23.6729C19.4275 23.8968 19.2503 24.1168 19.0068 24.1168H16.6175Z" fill="white"/>
</svg>
