<svg width="551" height="32" viewBox="0 0 551 32" fill="none" xmlns="http://www.w3.org/2000/svg">
<g clip-path="url(#clip0_1_1419)">
<path d="M174.577 28.0819C185.895 28.0819 192.088 18.7028 192.088 10.5718C192.088 10.3081 192.082 10.0386 192.07 9.77492C193.274 8.90379 194.314 7.82478 195.14 6.58859C194.018 7.08772 192.827 7.41369 191.607 7.55539C192.891 6.7856 193.853 5.57631 194.313 4.15167C193.105 4.86766 191.784 5.37273 190.406 5.64523C189.478 4.65892 188.251 4.00586 186.914 3.78703C185.578 3.5682 184.206 3.79578 183.012 4.43459C181.818 5.07339 180.867 6.08785 180.307 7.3211C179.747 8.55436 179.609 9.93773 179.914 11.2573C177.468 11.1345 175.075 10.4991 172.89 9.39209C170.705 8.28508 168.777 6.73126 167.231 4.83136C166.445 6.18602 166.205 7.78902 166.558 9.31458C166.912 10.8401 167.833 12.1737 169.135 13.0444C168.158 13.0134 167.202 12.7503 166.347 12.2768V12.353C166.346 13.7746 166.837 15.1527 167.738 16.2529C168.638 17.3531 169.891 18.1076 171.285 18.3882C170.38 18.6358 169.43 18.6719 168.508 18.4936C168.901 19.7162 169.667 20.7855 170.697 21.5523C171.727 22.3191 172.971 22.7452 174.255 22.771C172.075 24.4833 169.382 25.4121 166.61 25.4077C166.119 25.4069 165.628 25.3768 165.14 25.3175C167.956 27.1241 171.232 28.0837 174.577 28.0819Z" fill="white"/>
</g>
<g clip-path="url(#clip1_1_1419)">
<path fill-rule="evenodd" clip-rule="evenodd" d="M239.39 1.51953C235.829 1.52138 232.385 2.78261 229.673 5.07769C226.962 7.37277 225.16 10.552 224.589 14.047C224.019 17.542 224.717 21.1248 226.56 24.1547C228.402 27.1847 231.268 29.4642 234.646 30.5857C235.391 30.724 235.672 30.2622 235.672 29.8695C235.672 29.4768 235.657 28.3382 235.652 27.0935C231.479 27.995 230.597 25.3326 230.597 25.3326C229.917 23.6038 228.933 23.1494 228.933 23.1494C227.572 22.2257 229.035 22.243 229.035 22.243C230.543 22.3492 231.335 23.7816 231.335 23.7816C232.671 26.0612 234.845 25.4017 235.699 25.0165C235.833 24.0508 236.223 23.3939 236.653 23.0209C233.32 22.6455 229.817 21.3662 229.817 15.6513C229.797 14.1691 230.35 12.7358 231.362 11.6478C231.208 11.2724 230.694 9.75607 231.509 7.69633C231.509 7.69633 232.768 7.29623 235.635 9.22509C238.093 8.55657 240.687 8.55657 243.146 9.22509C246.01 7.29623 247.266 7.69633 247.266 7.69633C248.084 9.75113 247.57 11.2675 247.416 11.6478C248.431 12.736 248.986 14.1718 248.963 15.6562C248.963 21.3835 245.453 22.6455 242.115 23.0135C242.651 23.4778 243.131 24.3842 243.131 25.7771C243.131 27.7727 243.113 29.378 243.113 29.8695C243.113 30.2671 243.384 30.7314 244.144 30.5857C247.522 29.4641 250.389 27.1841 252.231 24.1537C254.074 21.1232 254.772 17.5399 254.201 14.0446C253.63 10.5493 251.826 7.36998 249.114 5.07529C246.402 2.78061 242.957 1.52021 239.395 1.51953H239.39Z" fill="white"/>
<path d="M230.07 22.9343C230.038 23.0084 229.919 23.0306 229.822 22.9787C229.725 22.9269 229.653 22.8306 229.688 22.754C229.722 22.6774 229.839 22.6577 229.936 22.7095C230.033 22.7614 230.107 22.8602 230.07 22.9343Z" fill="white"/>
<path d="M230.679 23.6084C230.627 23.6342 230.568 23.6414 230.512 23.6288C230.456 23.6161 230.406 23.5845 230.371 23.5393C230.274 23.4355 230.254 23.2923 230.328 23.2281C230.403 23.1639 230.537 23.1935 230.634 23.2972C230.731 23.401 230.753 23.5442 230.679 23.6084Z" fill="white"/>
<path d="M231.27 24.4663C231.178 24.5305 231.021 24.4663 230.934 24.3379C230.91 24.3148 230.891 24.2872 230.878 24.2567C230.865 24.2261 230.858 24.1933 230.858 24.1601C230.858 24.1269 230.865 24.094 230.878 24.0634C230.891 24.0329 230.91 24.0053 230.934 23.9822C231.026 23.9205 231.183 23.9822 231.27 24.1082C231.357 24.2341 231.359 24.4021 231.27 24.4663Z" fill="white"/>
<path d="M232.072 25.2952C231.99 25.3865 231.824 25.3618 231.687 25.2384C231.551 25.1149 231.518 24.9469 231.6 24.858C231.682 24.7691 231.849 24.7938 231.99 24.9148C232.132 25.0358 232.159 25.2062 232.072 25.2952Z" fill="white"/>
<path d="M233.197 25.7796C233.16 25.8957 232.991 25.9475 232.822 25.8981C232.653 25.8487 232.542 25.7104 232.574 25.5919C232.606 25.4733 232.778 25.419 232.949 25.4733C233.12 25.5277 233.23 25.6586 233.197 25.7796Z" fill="white"/>
<path d="M234.425 25.8638C234.425 25.9848 234.285 26.0886 234.107 26.091C233.928 26.0935 233.781 25.9947 233.781 25.8737C233.781 25.7527 233.92 25.649 234.099 25.6465C234.278 25.644 234.425 25.7403 234.425 25.8638Z" fill="white"/>
<path d="M235.567 25.6734C235.589 25.7944 235.465 25.9204 235.286 25.95C235.107 25.9796 234.951 25.908 234.928 25.7895C234.906 25.6709 235.035 25.5425 235.209 25.5104C235.383 25.4783 235.544 25.5524 235.567 25.6734Z" fill="white"/>
</g>
<g clip-path="url(#clip2_1_1419)">
<path d="M309.036 6.08887C307.124 5.21152 305.073 4.56512 302.93 4.19491C302.89 4.18776 302.851 4.20562 302.831 4.24133C302.568 4.71035 302.276 5.32222 302.071 5.80315C299.765 5.45794 297.471 5.45794 295.213 5.80315C295.008 5.31153 294.705 4.71035 294.44 4.24133C294.42 4.20681 294.381 4.18895 294.342 4.19491C292.2 4.56394 290.149 5.21034 288.236 6.08887C288.219 6.09601 288.205 6.10793 288.196 6.12339C284.306 11.9338 283.241 17.6014 283.764 23.1988C283.766 23.2262 283.781 23.2524 283.803 23.269C286.369 25.1535 288.854 26.2975 291.294 27.0557C291.333 27.0677 291.374 27.0534 291.399 27.0212C291.976 26.2332 292.49 25.4023 292.931 24.5285C292.958 24.4773 292.933 24.4166 292.879 24.3964C292.064 24.0868 291.287 23.7095 290.539 23.2809C290.48 23.2464 290.475 23.1619 290.53 23.1214C290.687 23.0036 290.844 22.8809 290.995 22.7571C291.022 22.7345 291.06 22.7297 291.092 22.744C296.001 24.9856 301.317 24.9856 306.168 22.744C306.2 22.7286 306.238 22.7333 306.266 22.7559C306.417 22.8797 306.574 23.0036 306.732 23.1214C306.787 23.1619 306.783 23.2464 306.724 23.2809C305.977 23.7178 305.2 24.0868 304.383 24.3952C304.33 24.4154 304.306 24.4773 304.332 24.5285C304.782 25.4011 305.297 26.232 305.863 27.02C305.887 27.0534 305.929 27.0677 305.969 27.0557C308.42 26.2975 310.905 25.1535 313.471 23.269C313.494 23.2524 313.508 23.2274 313.51 23.2C314.136 16.7288 312.463 11.1077 309.075 6.12457C309.067 6.10793 309.052 6.09601 309.036 6.08887ZM293.665 19.7906C292.187 19.7906 290.969 18.4335 290.969 16.7669C290.969 15.1003 292.163 13.7433 293.665 13.7433C295.178 13.7433 296.384 15.1122 296.361 16.7669C296.361 18.4335 295.166 19.7906 293.665 19.7906ZM303.633 19.7906C302.155 19.7906 300.937 18.4335 300.937 16.7669C300.937 15.1003 302.131 13.7433 303.633 13.7433C305.147 13.7433 306.353 15.1122 306.329 16.7669C306.329 18.4335 305.147 19.7906 303.633 19.7906Z" fill="white"/>
</g>
<g clip-path="url(#clip3_1_1419)">
<path fill-rule="evenodd" clip-rule="evenodd" d="M372.89 15.8945C372.89 24.1788 366.174 30.8945 357.89 30.8945C349.605 30.8945 342.89 24.1788 342.89 15.8945C342.89 7.61026 349.605 0.894531 357.89 0.894531C366.174 0.894531 372.89 7.61026 372.89 15.8945ZM358.427 11.9681C356.968 12.575 354.052 13.831 349.68 15.7361C348.969 16.0185 348.597 16.2947 348.564 16.5649C348.506 17.0214 349.078 17.2011 349.856 17.4459C349.962 17.4792 350.072 17.5137 350.185 17.5502C350.95 17.7992 351.981 18.0904 352.516 18.102C353.002 18.1125 353.544 17.9122 354.143 17.5012C358.229 14.7432 360.338 13.3492 360.47 13.3192C360.563 13.298 360.693 13.2713 360.781 13.3493C360.868 13.4272 360.86 13.5749 360.85 13.6145C360.794 13.8559 358.55 15.9421 357.389 17.0217C357.027 17.3583 356.77 17.597 356.717 17.6515C356.6 17.7737 356.48 17.8892 356.365 18.0002C355.653 18.6861 355.12 19.2005 356.394 20.0405C357.007 20.4441 357.497 20.7779 357.986 21.1109C358.52 21.4746 359.053 21.8373 359.742 22.2891C359.917 22.4042 360.085 22.5237 360.248 22.6401C360.87 23.0832 361.428 23.4812 362.118 23.4178C362.519 23.3809 362.933 23.004 363.143 21.8799C363.64 19.2234 364.617 13.4676 364.842 11.0957C364.862 10.8879 364.837 10.622 364.817 10.5052C364.797 10.3885 364.756 10.2222 364.604 10.099C364.424 9.9532 364.147 9.92245 364.023 9.92463C363.458 9.93456 362.593 10.2355 358.427 11.9681Z" fill="white"/>
</g>
<g clip-path="url(#clip4_1_1419)">
<path d="M429.919 0.894531H404.354C403.13 0.894531 402.14 1.86133 402.14 3.05665V28.7265C402.14 29.9218 403.13 30.8945 404.354 30.8945H429.919C431.144 30.8945 432.14 29.9218 432.14 28.7324V3.05665C432.14 1.86133 431.144 0.894531 429.919 0.894531ZM411.04 26.4589H406.587V12.1386H411.04V26.4589ZM408.813 10.1875C407.384 10.1875 406.229 9.03321 406.229 7.60938C406.229 6.18555 407.384 5.03125 408.813 5.03125C410.237 5.03125 411.392 6.18555 411.392 7.60938C411.392 9.02735 410.237 10.1875 408.813 10.1875ZM427.704 26.4589H423.257V19.498C423.257 17.8398 423.228 15.7011 420.942 15.7011C418.628 15.7011 418.276 17.5117 418.276 19.3808V26.4589H413.835V12.1386H418.101V14.0957H418.159C418.751 12.9707 420.204 11.7812 422.366 11.7812C426.872 11.7812 427.704 14.746 427.704 18.6015V26.4589Z" fill="white"/>
</g>
<g clip-path="url(#clip5_1_1419)">
<path d="M478.311 15.6791C478.311 20.3925 474.523 24.2135 469.851 24.2135C465.178 24.2135 461.39 20.3916 461.39 15.6791C461.39 10.9666 465.178 7.14453 469.851 7.14453C474.524 7.14453 478.311 10.9657 478.311 15.6791Z" fill="white"/>
<path d="M487.593 15.6792C487.593 20.1158 485.699 23.7139 483.362 23.7139C481.026 23.7139 479.132 20.1158 479.132 15.6792C479.132 11.2425 481.026 7.64453 483.362 7.64453C485.699 7.64453 487.593 11.2414 487.593 15.6792" fill="white"/>
<path d="M491.39 15.6792C491.39 19.6534 490.724 22.877 489.902 22.877C489.08 22.877 488.414 19.6542 488.414 15.6792C488.414 11.7042 489.08 8.48145 489.902 8.48145C490.723 8.48145 491.39 11.7039 491.39 15.6792Z" fill="white"/>
</g>
<g clip-path="url(#clip6_1_1419)">
<path d="M550.341 9.89454C550.341 9.89454 550.048 7.82618 549.146 6.91797C548.003 5.72266 546.726 5.7168 546.14 5.64649C541.944 5.3418 535.646 5.3418 535.646 5.3418H535.634C535.634 5.3418 529.335 5.3418 525.14 5.64649C524.554 5.7168 523.276 5.72266 522.134 6.91797C521.231 7.82618 520.944 9.89454 520.944 9.89454C520.944 9.89454 520.64 12.3261 520.64 14.7519V17.0253C520.64 19.4511 520.938 21.8828 520.938 21.8828C520.938 21.8828 521.231 23.9511 522.128 24.8593C523.271 26.0546 524.771 26.0136 525.438 26.1425C527.841 26.3711 535.64 26.4414 535.64 26.4414C535.64 26.4414 541.944 26.4296 546.14 26.1308C546.726 26.0605 548.003 26.0546 549.146 24.8593C550.048 23.9511 550.341 21.8828 550.341 21.8828C550.341 21.8828 550.64 19.457 550.64 17.0253V14.7519C550.64 12.3261 550.341 9.89454 550.341 9.89454ZM532.54 19.7851V11.3535L540.644 15.5839L532.54 19.7851Z" fill="white"/>
</g>
<defs>
<clipPath id="clip0_1_1419">
<rect width="30" height="31" fill="white" transform="translate(165.14 0.731445)"/>
</clipPath>
<clipPath id="clip1_1_1419">
<rect width="30" height="31" fill="white" transform="translate(224.39 0.731445)"/>
</clipPath>
<clipPath id="clip2_1_1419">
<rect width="30" height="31" fill="white" transform="translate(283.64 0.731445)"/>
</clipPath>
<clipPath id="clip3_1_1419">
<rect width="30" height="31" fill="white" transform="translate(342.89 0.731445)"/>
</clipPath>
<clipPath id="clip4_1_1419">
<rect width="30" height="31" fill="white" transform="translate(402.14 0.731445)"/>
</clipPath>
<clipPath id="clip5_1_1419">
<rect width="30" height="31" fill="white" transform="translate(461.39 0.731445)"/>
</clipPath>
<clipPath id="clip6_1_1419">
<rect width="30" height="31" fill="white" transform="translate(520.64 0.731445)"/>
</clipPath>
</defs>
</svg>
